<?xml version="1.0" encoding="UTF-8"?>
<svg width="752pt" height="752pt" version="1.1" viewBox="0 0 752 752" xmlns="http://www.w3.org/2000/svg">
 <path d="m514.68 194.03-126.42 1.4219c-8.7656 0.097656-17.219 2.6758-24.48 7.2656l-58.457 15.898c-0.21875 0.0625-0.4375 0.12891-0.64844 0.20312l-19.961 6.9336-0.007812-0.019531-0.10547 0.058593-2.2969 0.79688c-5.668 1.9688-10.836 4.9883-15.289 8.8398l-17.195 9.4258-11.793 6.5703-0.1875-0.25391-1.875 1.4062-5.7617 3.207c-5.0977 2.8398-9.5664 6.5859-13.23 11.012l-29.852 22.34c-0.085938 0.0625-0.16016 0.125-0.24219 0.1875-9.7656 7.8047-15.898 18.941-17.281 31.355-1.3633 12.285 2.0781 24.371 9.7148 34.07l121.22 178.98c0.13672 0.20312 0.29297 0.40625 0.44922 0.60547 9.5039 11.891 23.668 17.902 37.82 17.531 9.7734-0.26172 19.543-3.5625 27.77-10.094l33.598-24.762 37.941-7.1602 19.359-3.6328-0.097656 1.5156 61.23 1.6953c0.24609-0.007813 0.48438-0.015625 0.73047-0.019531 25.391-0.66797 45.746-24.27 45.465-49.684l-2.7773-218.24c-0.28906-25.797-21.543-47.734-47.34-47.449zm-241.23 63.438c1.293-2.3633 2.9219-4.4961 4.8086-6.3516l14.152-7.7578 7.0625-2.4531c-3.7305 8.5352-4.8906 18.078-3.1523 27.355l37.059 213.49-61.707-201.57c-0.03125-0.11328-0.070312-0.22266-0.10938-0.33984-2.5703-7.3711-1.8789-15.527 1.8867-22.379zm68.555-14.699 2.4062 190.58-29.238-168.43c-0.007812-0.046875-0.019531-0.09375-0.027343-0.14062-1.4297-7.5898 0.40625-15.496 5.043-21.691 4.1445-5.5352 10.176-9.2969 16.984-10.578l6.0898-1.1445c-0.87891 3.6914-1.3047 7.5078-1.2578 11.402zm-90.871 23.285c-0.68359 6.6523 0.050781 13.449 2.2695 19.898l61.953 202.38-86.273-177.75c-0.082032-0.16016-0.16406-0.32031-0.25-0.47656-3.8594-6.9336-4.5508-15.211-1.8789-22.707 0.87109-2.4492 2.0742-4.7344 3.5625-6.8086l15.895-11.895zm-56.617 77.043c-4.6133-5.7617-6.6953-12.973-5.8789-20.301 0.80469-7.2852 4.3945-13.82 10.094-18.426l7.5312-5.6328c0.30859 7.0898 2.2227 14.09 5.7031 20.43l85.012 175.15-102.01-150.61c-0.14844-0.20703-0.29688-0.41016-0.45312-0.60938zm351.06 114.48c0.16406 15.004-11.887 27.527-26.875 27.922l-126.86 1.4414c-15.234 0.16406-27.766-12.09-27.938-27.332l-2.7383-217.06c-0.070312-6.1055 1.8242-11.914 5.4648-16.797 0.48828-0.66797 0.98828-1.2852 1.4766-1.832 5.1367-5.793 12.219-9.0938 19.938-9.2969l126.86-1.4297c15.234-0.17188 27.77 12.086 27.938 27.332z"/>
</svg>
