<?xml version="1.0" encoding="utf-8"?>
<!-- Svg Vector Icons : http://www.onlinewebfonts.com/icon -->
<!DOCTYPE svg PUBLIC "-//W3C//DTD SVG 1.1//EN" "http://www.w3.org/Graphics/SVG/1.1/DTD/svg11.dtd">
<svg version="1.1" xmlns="http://www.w3.org/2000/svg" xmlns:xlink="http://www.w3.org/1999/xlink" x="0px" y="0px" viewBox="0 0 1000 1000" enable-background="new 0 0 1000 1000" xml:space="preserve">
<metadata> Svg Vector Icons : http://www.onlinewebfonts.com/icon </metadata>
<g><path d="M382.6,599c-133.1,0-241.3-108.3-241.3-241.3c0-133.1,108.3-241.3,241.3-241.3c133.1,0,241.3,108.3,241.3,241.3C623.9,490.7,515.6,599,382.6,599z M382.6,164.5c-106.5,0-193.1,86.6-193.1,193.1c0,106.5,86.6,193.1,193.1,193.1c106.5,0,193.1-86.6,193.1-193.1C575.6,251.1,489,164.5,382.6,164.5z"/><path d="M731,883.7c-13.3,0-24.1-10.8-24.1-24.1c0-142.4-145.5-258.2-324.3-258.2S58.3,717.2,58.3,859.6c0,13.3-10.8,24.1-24.1,24.1c-13.3,0-24.1-10.8-24.1-24.1c0-42,10.1-82.8,30.1-121.1c19.1-36.6,46.3-69.3,80.9-97.3c70.1-56.8,163-88.1,261.6-88.1c98.6,0,191.5,31.3,261.6,88.1c34.6,28,61.8,60.8,80.9,97.3c20,38.3,30.1,79,30.1,121.1C755.1,872.9,744.3,883.7,731,883.7z"/><path d="M965.9,308.1H712.5c-13.3,0-24.1-10.9-24.1-24.1l0,0c0-13.3,10.9-24.1,24.1-24.1h253.4c13.3,0,24.1,10.9,24.1,24.1l0,0C990,297.3,979.1,308.1,965.9,308.1z"/><path d="M965.9,595.3H652.1c-13.3,0-24.1-10.9-24.1-24.1l0,0c0-13.3,10.9-24.1,24.1-24.1h313.8c13.3,0,24.1,10.9,24.1,24.1l0,0C990,584.5,979.1,595.3,965.9,595.3z"/><path d="M965.9,883.7H833.1c-13.3,0-24.1-10.9-24.1-24.1l0,0c0-13.3,10.9-24.1,24.1-24.1h132.7c13.3,0,24.1,10.9,24.1,24.1l0,0C990,872.9,979.1,883.7,965.9,883.7z"/></g>
</svg>