<?xml version="1.0" encoding="utf-8"?>
<!-- Svg Vector Icons : http://www.onlinewebfonts.com/icon -->
<!DOCTYPE svg PUBLIC "-//W3C//DTD SVG 1.1//EN" "http://www.w3.org/Graphics/SVG/1.1/DTD/svg11.dtd">
<svg version="1.1" xmlns="http://www.w3.org/2000/svg" xmlns:xlink="http://www.w3.org/1999/xlink" x="0px" y="0px" viewBox="0 0 1000 1000" enable-background="new 0 0 1000 1000" xml:space="preserve">
<metadata> Svg Vector Icons : http://www.onlinewebfonts.com/icon </metadata>
<g><path d="M346.1,824.1"/><path d="M948.6,663.3c-22.8,0-41.4-18.6-41.4-41.6l1.1-244.2c0-46-36-81.7-81.7-81.7H214.2l143.3,130L299,484.7L50.8,255L267,22l57.7,57.7L201.1,214.2h625.6C918,214.2,990,280.1,990,372v249.7C990,644.7,971.5,663.3,948.6,663.3z M91.7,418.3V500v163.3c0,45.1,36.6,81.7,81.7,81.7h636.3L675.3,610.5l57.7-57.7L937.2,757L733,978l-57.7-57.7l95.1-93.6h-597C83.1,826.7,10,753.5,10,663.3V500v-40.8v-40.8c0-22.6,18.3-40.8,40.8-40.8C73.4,377.5,91.7,395.8,91.7,418.3z"/></g>
</svg>